<mxfile host="app.diagrams.net" agent="Mozilla/5.0 (Windows NT 10.0; Win64; x64) AppleWebKit/537.36 (KHTML, like Gecko) Chrome/131.0.0.0 Safari/537.36" version="25.0.3">
  <diagram name="Trang-1" id="Jn7vkuSAb4T4sYwqLuni">
    <mxGraphModel dx="1290" dy="530" grid="1" gridSize="12" guides="1" tooltips="1" connect="1" arrows="1" fold="1" page="1" pageScale="1" pageWidth="827" pageHeight="1169" background="#ffffff" math="0" shadow="0">
      <root>
        <mxCell id="0" />
        <mxCell id="1" parent="0" />
        <mxCell id="d0EO95ttq8O7wqnoFPjT-2" value="&lt;font style=&quot;font-size: 18px;&quot;&gt;ESP32&lt;/font&gt;" style="rounded=1;whiteSpace=wrap;html=1;fillColor=#ffff88;strokeColor=#36393d;" parent="1" vertex="1">
          <mxGeometry x="516" y="329" width="76.5" height="83" as="geometry" />
        </mxCell>
        <mxCell id="d0EO95ttq8O7wqnoFPjT-7" value="&lt;span style=&quot;font-size: 14px;&quot;&gt;Hiển thị lên LCD(mức ánh áng điện áp, dòng điện và công suất ).&lt;/span&gt;" style="rounded=1;whiteSpace=wrap;html=1;fillColor=#6a00ff;strokeColor=#3700CC;fontColor=#ffffff;" parent="1" vertex="1">
          <mxGeometry x="660" y="216" width="120" height="96" as="geometry" />
        </mxCell>
        <mxCell id="7ijk_zuWETWdCwxrr4oX-30" value="&lt;span style=&quot;font-size: 14px;&quot;&gt;APP BLYNK&lt;/span&gt;" style="rounded=1;whiteSpace=wrap;html=1;fillColor=#d80073;fontColor=#ffffff;strokeColor=#A50040;direction=south;" parent="1" vertex="1">
          <mxGeometry x="660" y="408" width="120" height="81" as="geometry" />
        </mxCell>
        <mxCell id="Uuw6fRYSWHFYPftMxJWr-8" value="&lt;div&gt;&lt;br&gt;&lt;/div&gt;&lt;div&gt;&lt;br&gt;&lt;/div&gt;&lt;div&gt;&lt;br&gt;&lt;/div&gt;&lt;div&gt;&lt;br&gt;&lt;/div&gt;&lt;div&gt;&lt;br&gt;&lt;/div&gt;&lt;div&gt;&lt;br&gt;&lt;/div&gt;&lt;div&gt;&lt;br&gt;&lt;/div&gt;&lt;div&gt;&lt;br&gt;&lt;/div&gt;&lt;div&gt;&lt;br&gt;&lt;/div&gt;&lt;div&gt;&lt;br&gt;&lt;/div&gt;&lt;div&gt;&lt;br&gt;&lt;/div&gt;&lt;div&gt;&lt;br&gt;&lt;/div&gt;&lt;div&gt;&lt;br&gt;&lt;/div&gt;&lt;div&gt;&lt;br&gt;&lt;/div&gt;&lt;div&gt;&lt;br&gt;&lt;/div&gt;&lt;div&gt;&lt;br&gt;&lt;/div&gt;&lt;div&gt;&lt;br&gt;&lt;/div&gt;&lt;div&gt;&lt;br&gt;&lt;/div&gt;&lt;div&gt;&lt;br&gt;&lt;/div&gt;&lt;div&gt;&lt;br&gt;&lt;/div&gt;&lt;div&gt;&lt;br&gt;&lt;/div&gt;&lt;div&gt;&lt;br&gt;&lt;/div&gt;&lt;div&gt;&lt;br&gt;&lt;/div&gt;&lt;div&gt;&lt;br&gt;&lt;/div&gt;&lt;div&gt;&lt;br&gt;&lt;/div&gt;&lt;div&gt;&lt;br&gt;&lt;/div&gt;&lt;div&gt;&lt;br&gt;&lt;/div&gt;&lt;div&gt;&lt;br&gt;&lt;/div&gt;&lt;div&gt;&lt;br&gt;&lt;/div&gt;&lt;div&gt;&lt;br&gt;&lt;/div&gt;&lt;div&gt;&lt;br&gt;&lt;/div&gt;&lt;div&gt;&lt;br&gt;&lt;/div&gt;&lt;div&gt;&lt;br&gt;&lt;/div&gt;&lt;div&gt;&lt;br&gt;&lt;/div&gt;&lt;div&gt;&lt;br&gt;&lt;/div&gt;&lt;div&gt;&lt;br&gt;&lt;/div&gt;&lt;div&gt;&lt;br&gt;&lt;/div&gt;&lt;div&gt;&lt;br&gt;&lt;/div&gt;&lt;div&gt;&lt;b style=&quot;background-color: initial; font-size: 18px; color: rgb(255, 0, 0);&quot;&gt;STM32&lt;/b&gt;&lt;br&gt;&lt;/div&gt;" style="rounded=1;whiteSpace=wrap;html=1;fillColor=#f5f5f5;fontColor=#333333;strokeColor=#666666;" parent="1" vertex="1">
          <mxGeometry x="60" y="48" width="432" height="586" as="geometry" />
        </mxCell>
        <mxCell id="Uuw6fRYSWHFYPftMxJWr-9" value="&lt;font style=&quot;font-size: 14px;&quot;&gt;Pin năng lượng mặt trời&amp;nbsp;&lt;/font&gt;" style="rounded=1;whiteSpace=wrap;html=1;fillColor=#60a917;fontColor=#ffffff;strokeColor=#2D7600;" parent="1" vertex="1">
          <mxGeometry x="216" y="72" width="120" height="60" as="geometry" />
        </mxCell>
        <mxCell id="Uuw6fRYSWHFYPftMxJWr-10" value="&lt;font style=&quot;font-size: 14px;&quot;&gt;Task đọc cảm biến&amp;nbsp;&lt;br&gt;BH1750, INA219&lt;/font&gt;" style="rounded=1;whiteSpace=wrap;html=1;fillColor=#b1ddf0;strokeColor=#10739e;" parent="1" vertex="1">
          <mxGeometry x="84" y="168" width="120" height="72" as="geometry" />
        </mxCell>
        <mxCell id="Uuw6fRYSWHFYPftMxJWr-11" value="&lt;span style=&quot;font-size: 14px;&quot;&gt;Task Main&amp;nbsp;&lt;/span&gt;" style="rounded=1;whiteSpace=wrap;html=1;fillColor=#b1ddf0;strokeColor=#10739e;" parent="1" vertex="1">
          <mxGeometry x="96" y="335" width="156" height="60" as="geometry" />
        </mxCell>
        <mxCell id="Uuw6fRYSWHFYPftMxJWr-12" value="&lt;span style=&quot;font-size: 14px;&quot;&gt;Task Control&amp;nbsp;&lt;/span&gt;&lt;br style=&quot;font-size: 14px;&quot;&gt;&lt;span style=&quot;font-size: 14px;&quot;&gt;Servo, Động cơ bước( Note: set góc, hướng quay)&amp;nbsp;&amp;nbsp;&lt;/span&gt;" style="rounded=1;whiteSpace=wrap;html=1;fillColor=#fad7ac;strokeColor=#b46504;" parent="1" vertex="1">
          <mxGeometry x="96" y="489" width="144" height="96" as="geometry" />
        </mxCell>
        <mxCell id="Uuw6fRYSWHFYPftMxJWr-15" value="" style="endArrow=classic;html=1;rounded=0;entryX=0.5;entryY=0;entryDx=0;entryDy=0;exitX=0;exitY=0.5;exitDx=0;exitDy=0;strokeWidth=3;" parent="1" source="Uuw6fRYSWHFYPftMxJWr-9" target="Uuw6fRYSWHFYPftMxJWr-10" edge="1">
          <mxGeometry width="50" height="50" relative="1" as="geometry">
            <mxPoint x="156" y="144" as="sourcePoint" />
            <mxPoint x="206" y="94" as="targetPoint" />
          </mxGeometry>
        </mxCell>
        <mxCell id="Uuw6fRYSWHFYPftMxJWr-16" value="" style="endArrow=classic;html=1;rounded=0;entryX=0.303;entryY=-0.013;entryDx=0;entryDy=0;strokeWidth=3;exitX=0.5;exitY=1;exitDx=0;exitDy=0;entryPerimeter=0;" parent="1" source="Uuw6fRYSWHFYPftMxJWr-10" target="Uuw6fRYSWHFYPftMxJWr-11" edge="1">
          <mxGeometry width="50" height="50" relative="1" as="geometry">
            <mxPoint x="156" y="264" as="sourcePoint" />
            <mxPoint x="155.64" y="312" as="targetPoint" />
          </mxGeometry>
        </mxCell>
        <mxCell id="Uuw6fRYSWHFYPftMxJWr-18" value="&lt;font style=&quot;font-size: 14px;&quot;&gt;&lt;b&gt;Queue&lt;br&gt;Event&lt;/b&gt;&lt;/font&gt;" style="edgeLabel;html=1;align=center;verticalAlign=middle;resizable=0;points=[];" parent="Uuw6fRYSWHFYPftMxJWr-16" vertex="1" connectable="0">
          <mxGeometry x="0.0838" y="-2" relative="1" as="geometry">
            <mxPoint as="offset" />
          </mxGeometry>
        </mxCell>
        <mxCell id="Uuw6fRYSWHFYPftMxJWr-19" value="" style="endArrow=classic;html=1;rounded=0;strokeWidth=3;entryX=0.27;entryY=0.025;entryDx=0;entryDy=0;exitX=0.25;exitY=1;exitDx=0;exitDy=0;entryPerimeter=0;" parent="1" source="Uuw6fRYSWHFYPftMxJWr-11" target="Uuw6fRYSWHFYPftMxJWr-12" edge="1">
          <mxGeometry width="50" height="50" relative="1" as="geometry">
            <mxPoint x="120" y="395" as="sourcePoint" />
            <mxPoint x="121" y="480" as="targetPoint" />
          </mxGeometry>
        </mxCell>
        <mxCell id="Uuw6fRYSWHFYPftMxJWr-20" value="&lt;font style=&quot;font-size: 14px;&quot;&gt;&lt;b&gt;PWM&lt;br&gt;Auto&lt;/b&gt;&lt;/font&gt;" style="edgeLabel;html=1;align=center;verticalAlign=middle;resizable=0;points=[];" parent="Uuw6fRYSWHFYPftMxJWr-19" vertex="1" connectable="0">
          <mxGeometry x="-0.0667" relative="1" as="geometry">
            <mxPoint as="offset" />
          </mxGeometry>
        </mxCell>
        <mxCell id="Uuw6fRYSWHFYPftMxJWr-27" value="" style="endArrow=classic;startArrow=classic;html=1;rounded=0;entryX=0.4;entryY=1.018;entryDx=0;entryDy=0;entryPerimeter=0;exitX=1.009;exitY=0.866;exitDx=0;exitDy=0;exitPerimeter=0;strokeWidth=3;" parent="1" source="d0EO95ttq8O7wqnoFPjT-2" target="7ijk_zuWETWdCwxrr4oX-30" edge="1">
          <mxGeometry width="50" height="50" relative="1" as="geometry">
            <mxPoint x="599.9999999999998" y="463" as="sourcePoint" />
            <mxPoint x="693.75" y="498.5" as="targetPoint" />
          </mxGeometry>
        </mxCell>
        <mxCell id="Uuw6fRYSWHFYPftMxJWr-38" value="" style="endArrow=classic;html=1;rounded=0;entryX=0;entryY=0.5;entryDx=0;entryDy=0;exitX=1;exitY=0.5;exitDx=0;exitDy=0;strokeWidth=3;" parent="1" source="d0EO95ttq8O7wqnoFPjT-2" target="d0EO95ttq8O7wqnoFPjT-7" edge="1">
          <mxGeometry width="50" height="50" relative="1" as="geometry">
            <mxPoint x="592.5" y="379" as="sourcePoint" />
            <mxPoint x="642.5" y="329" as="targetPoint" />
          </mxGeometry>
        </mxCell>
        <mxCell id="Uuw6fRYSWHFYPftMxJWr-43" value="TASK UART" style="rounded=1;whiteSpace=wrap;html=1;fillColor=#dae8fc;strokeColor=#6c8ebf;gradientColor=#7ea6e0;" parent="1" vertex="1">
          <mxGeometry x="360" y="323.5" width="120" height="96" as="geometry" />
        </mxCell>
        <mxCell id="Uuw6fRYSWHFYPftMxJWr-46" value="" style="endArrow=classic;html=1;rounded=0;entryX=0;entryY=0.25;entryDx=0;entryDy=0;exitX=0.996;exitY=0.207;exitDx=0;exitDy=0;exitPerimeter=0;strokeWidth=3;" parent="1" source="Uuw6fRYSWHFYPftMxJWr-11" target="Uuw6fRYSWHFYPftMxJWr-43" edge="1">
          <mxGeometry width="50" height="50" relative="1" as="geometry">
            <mxPoint x="216" y="338" as="sourcePoint" />
            <mxPoint x="266" y="288" as="targetPoint" />
          </mxGeometry>
        </mxCell>
        <mxCell id="Uuw6fRYSWHFYPftMxJWr-47" value="&lt;b&gt;&lt;font style=&quot;font-size: 12px;&quot;&gt;Queue&lt;/font&gt;&lt;/b&gt;" style="edgeLabel;html=1;align=center;verticalAlign=middle;resizable=0;points=[];" parent="Uuw6fRYSWHFYPftMxJWr-46" vertex="1" connectable="0">
          <mxGeometry x="0.0978" y="1" relative="1" as="geometry">
            <mxPoint x="-15" as="offset" />
          </mxGeometry>
        </mxCell>
        <mxCell id="Uuw6fRYSWHFYPftMxJWr-52" value="" style="endArrow=classic;html=1;rounded=0;entryX=1;entryY=0.75;entryDx=0;entryDy=0;exitX=-0.006;exitY=0.598;exitDx=0;exitDy=0;exitPerimeter=0;strokeWidth=3;" parent="1" source="Uuw6fRYSWHFYPftMxJWr-43" target="Uuw6fRYSWHFYPftMxJWr-11" edge="1">
          <mxGeometry width="50" height="50" relative="1" as="geometry">
            <mxPoint x="288" y="374" as="sourcePoint" />
            <mxPoint x="338" y="324" as="targetPoint" />
          </mxGeometry>
        </mxCell>
        <mxCell id="Uuw6fRYSWHFYPftMxJWr-63" value="&lt;b&gt;&lt;font style=&quot;font-size: 12px;&quot;&gt;Queue&lt;/font&gt;&lt;/b&gt;" style="edgeLabel;html=1;align=center;verticalAlign=middle;resizable=0;points=[];" parent="Uuw6fRYSWHFYPftMxJWr-52" vertex="1" connectable="0">
          <mxGeometry x="-0.1108" y="-2" relative="1" as="geometry">
            <mxPoint as="offset" />
          </mxGeometry>
        </mxCell>
        <mxCell id="Uuw6fRYSWHFYPftMxJWr-53" value="" style="endArrow=classic;html=1;rounded=0;entryX=0.73;entryY=0.031;entryDx=0;entryDy=0;entryPerimeter=0;strokeWidth=3;exitX=0.67;exitY=0.99;exitDx=0;exitDy=0;exitPerimeter=0;" parent="1" source="Uuw6fRYSWHFYPftMxJWr-11" target="Uuw6fRYSWHFYPftMxJWr-12" edge="1">
          <mxGeometry width="50" height="50" relative="1" as="geometry">
            <mxPoint x="180" y="396" as="sourcePoint" />
            <mxPoint x="179.75999999999988" y="491.572" as="targetPoint" />
          </mxGeometry>
        </mxCell>
        <mxCell id="Uuw6fRYSWHFYPftMxJWr-54" value="&lt;span style=&quot;font-size: 14px;&quot;&gt;&lt;b&gt;PWM&lt;br&gt;Manual&lt;/b&gt;&lt;/span&gt;" style="edgeLabel;html=1;align=center;verticalAlign=middle;resizable=0;points=[];" parent="Uuw6fRYSWHFYPftMxJWr-53" vertex="1" connectable="0">
          <mxGeometry x="-0.3822" y="1" relative="1" as="geometry">
            <mxPoint y="13" as="offset" />
          </mxGeometry>
        </mxCell>
        <mxCell id="Uuw6fRYSWHFYPftMxJWr-64" value="&lt;font style=&quot;font-size: 14px;&quot;&gt;Task sạc&lt;br&gt;Trạm xả, sạcpin&lt;br&gt;Bộ điều khiển pin&amp;nbsp;&amp;nbsp;&lt;/font&gt;" style="rounded=1;whiteSpace=wrap;html=1;fillColor=#b1ddf0;strokeColor=#10739e;" parent="1" vertex="1">
          <mxGeometry x="360" y="168" width="120" height="96" as="geometry" />
        </mxCell>
        <mxCell id="Uuw6fRYSWHFYPftMxJWr-66" value="" style="endArrow=classic;html=1;rounded=0;entryX=0.844;entryY=-0.03;entryDx=0;entryDy=0;strokeWidth=3;exitX=0.096;exitY=1.004;exitDx=0;exitDy=0;exitPerimeter=0;entryPerimeter=0;" parent="1" source="Uuw6fRYSWHFYPftMxJWr-64" target="Uuw6fRYSWHFYPftMxJWr-11" edge="1">
          <mxGeometry width="50" height="50" relative="1" as="geometry">
            <mxPoint x="300" y="228" as="sourcePoint" />
            <mxPoint x="350" y="178" as="targetPoint" />
          </mxGeometry>
        </mxCell>
        <mxCell id="GJzrG64PH1oY8y1HCIY3-6" value="&lt;span style=&quot;font-size: 12px;&quot;&gt;&lt;b&gt;Event&lt;/b&gt;&lt;/span&gt;" style="edgeLabel;html=1;align=center;verticalAlign=middle;resizable=0;points=[];" parent="Uuw6fRYSWHFYPftMxJWr-66" vertex="1" connectable="0">
          <mxGeometry x="-0.0461" relative="1" as="geometry">
            <mxPoint as="offset" />
          </mxGeometry>
        </mxCell>
        <mxCell id="GJzrG64PH1oY8y1HCIY3-1" value="&lt;font style=&quot;font-size: 14px;&quot;&gt;Task Button&lt;/font&gt;" style="rounded=1;whiteSpace=wrap;html=1;fillColor=#b1ddf0;strokeColor=#10739e;" parent="1" vertex="1">
          <mxGeometry x="360" y="468" width="120" height="60" as="geometry" />
        </mxCell>
        <mxCell id="GJzrG64PH1oY8y1HCIY3-2" value="" style="endArrow=classic;html=1;rounded=0;entryX=0.823;entryY=0.997;entryDx=0;entryDy=0;entryPerimeter=0;strokeWidth=3;" parent="1" target="Uuw6fRYSWHFYPftMxJWr-11" edge="1">
          <mxGeometry width="50" height="50" relative="1" as="geometry">
            <mxPoint x="360" y="494" as="sourcePoint" />
            <mxPoint x="410" y="444" as="targetPoint" />
          </mxGeometry>
        </mxCell>
        <mxCell id="GJzrG64PH1oY8y1HCIY3-7" value="&lt;b style=&quot;font-size: 12px;&quot;&gt;Queue&amp;nbsp;&lt;br&gt;Interupt&lt;/b&gt;" style="edgeLabel;html=1;align=center;verticalAlign=middle;resizable=0;points=[];" parent="GJzrG64PH1oY8y1HCIY3-2" vertex="1" connectable="0">
          <mxGeometry x="-0.0089" y="2" relative="1" as="geometry">
            <mxPoint as="offset" />
          </mxGeometry>
        </mxCell>
        <mxCell id="GJzrG64PH1oY8y1HCIY3-3" value="" style="endArrow=classic;startArrow=classic;html=1;rounded=0;entryX=0.5;entryY=0;entryDx=0;entryDy=0;strokeWidth=3;exitX=1;exitY=0.5;exitDx=0;exitDy=0;" parent="1" source="Uuw6fRYSWHFYPftMxJWr-9" target="Uuw6fRYSWHFYPftMxJWr-64" edge="1">
          <mxGeometry width="50" height="50" relative="1" as="geometry">
            <mxPoint x="288" y="100" as="sourcePoint" />
            <mxPoint x="338" y="50" as="targetPoint" />
          </mxGeometry>
        </mxCell>
        <mxCell id="GJzrG64PH1oY8y1HCIY3-8" value="" style="endArrow=classic;html=1;rounded=0;entryX=0.005;entryY=0.307;entryDx=0;entryDy=0;entryPerimeter=0;exitX=0.997;exitY=0.321;exitDx=0;exitDy=0;exitPerimeter=0;strokeWidth=3;" parent="1" source="Uuw6fRYSWHFYPftMxJWr-43" target="d0EO95ttq8O7wqnoFPjT-2" edge="1">
          <mxGeometry width="50" height="50" relative="1" as="geometry">
            <mxPoint x="480" y="355" as="sourcePoint" />
            <mxPoint x="530" y="305" as="targetPoint" />
          </mxGeometry>
        </mxCell>
        <mxCell id="GJzrG64PH1oY8y1HCIY3-9" value="" style="endArrow=classic;html=1;rounded=0;strokeWidth=3;" parent="1" edge="1">
          <mxGeometry width="50" height="50" relative="1" as="geometry">
            <mxPoint x="516" y="390" as="sourcePoint" />
            <mxPoint x="480" y="390" as="targetPoint" />
          </mxGeometry>
        </mxCell>
      </root>
    </mxGraphModel>
  </diagram>
</mxfile>
